<mxfile host="app.diagrams.net" modified="2024-02-20T13:14:22.510Z" agent="Mozilla/5.0 (Macintosh; Intel Mac OS X 10_15_7) AppleWebKit/537.36 (KHTML, like Gecko) Chrome/121.0.0.0 Safari/537.36" etag="lCvMGAn4IR-zz6yV1nsD" version="23.0.2" type="github">
  <diagram name="第 1 页" id="4SdtJlmII5JLROGj38kx">
    <mxGraphModel dx="1434" dy="820" grid="1" gridSize="10" guides="1" tooltips="1" connect="1" arrows="1" fold="1" page="1" pageScale="1" pageWidth="1200" pageHeight="500" math="0" shadow="0">
      <root>
        <mxCell id="0" />
        <mxCell id="1" parent="0" />
        <mxCell id="N8gLPtohP1uES2nzlR-K-42" value="" style="rounded=1;whiteSpace=wrap;html=1;fillColor=#dae8fc;strokeColor=#6c8ebf;" vertex="1" parent="1">
          <mxGeometry x="380" y="207" width="190" height="133" as="geometry" />
        </mxCell>
        <mxCell id="N8gLPtohP1uES2nzlR-K-41" value="" style="rounded=1;whiteSpace=wrap;html=1;fillColor=#dae8fc;strokeColor=#6c8ebf;" vertex="1" parent="1">
          <mxGeometry x="380" y="37" width="190" height="143" as="geometry" />
        </mxCell>
        <mxCell id="N8gLPtohP1uES2nzlR-K-36" value="" style="edgeStyle=orthogonalEdgeStyle;rounded=0;orthogonalLoop=1;jettySize=auto;html=1;" edge="1" parent="1" source="N8gLPtohP1uES2nzlR-K-32" target="N8gLPtohP1uES2nzlR-K-31">
          <mxGeometry relative="1" as="geometry" />
        </mxCell>
        <mxCell id="N8gLPtohP1uES2nzlR-K-32" value="" style="rounded=1;whiteSpace=wrap;html=1;fillColor=#d5e8d4;strokeColor=#82b366;" vertex="1" parent="1">
          <mxGeometry x="10" y="20" width="210" height="360" as="geometry" />
        </mxCell>
        <mxCell id="N8gLPtohP1uES2nzlR-K-4" value="场：余额宝" style="rounded=0;whiteSpace=wrap;html=1;" vertex="1" parent="1">
          <mxGeometry x="30" y="37" width="170" height="50" as="geometry" />
        </mxCell>
        <mxCell id="N8gLPtohP1uES2nzlR-K-5" value="触发条件：余额宝转入/转出" style="rounded=0;whiteSpace=wrap;html=1;" vertex="1" parent="1">
          <mxGeometry x="30" y="97" width="170" height="50" as="geometry" />
        </mxCell>
        <mxCell id="N8gLPtohP1uES2nzlR-K-6" value="场内动作：三个月内无入金" style="rounded=0;whiteSpace=wrap;html=1;" vertex="1" parent="1">
          <mxGeometry x="30" y="157" width="170" height="50" as="geometry" />
        </mxCell>
        <mxCell id="N8gLPtohP1uES2nzlR-K-7" value="参考因子：收益预期" style="rounded=0;whiteSpace=wrap;html=1;" vertex="1" parent="1">
          <mxGeometry x="30" y="222" width="170" height="50" as="geometry" />
        </mxCell>
        <mxCell id="N8gLPtohP1uES2nzlR-K-8" value="" style="endArrow=none;dashed=1;html=1;dashPattern=1 3;strokeWidth=4;rounded=0;" edge="1" parent="1">
          <mxGeometry width="50" height="50" relative="1" as="geometry">
            <mxPoint x="90" y="357" as="sourcePoint" />
            <mxPoint x="130" y="357.5" as="targetPoint" />
          </mxGeometry>
        </mxCell>
        <mxCell id="N8gLPtohP1uES2nzlR-K-10" value="泛化因子：收益计算规则解析" style="rounded=0;whiteSpace=wrap;html=1;align=left;" vertex="1" parent="1">
          <mxGeometry x="390" y="57" width="170" height="30" as="geometry" />
        </mxCell>
        <mxCell id="N8gLPtohP1uES2nzlR-K-31" value="" style="shape=image;verticalLabelPosition=bottom;labelBackgroundColor=default;verticalAlign=top;aspect=fixed;imageAspect=0;image=https://upload.wikimedia.org/wikipedia/commons/thumb/0/04/ChatGPT_logo.svg/800px-ChatGPT_logo.svg.png;" vertex="1" parent="1">
          <mxGeometry x="280" y="170" width="60" height="60" as="geometry" />
        </mxCell>
        <mxCell id="N8gLPtohP1uES2nzlR-K-35" value="历史对话：为什么没有收益？" style="rounded=0;whiteSpace=wrap;html=1;" vertex="1" parent="1">
          <mxGeometry x="30" y="287" width="170" height="50" as="geometry" />
        </mxCell>
        <mxCell id="N8gLPtohP1uES2nzlR-K-38" value="可选项：&lt;br&gt;余额宝收益规则解析&lt;br&gt;如何获取高收益" style="rounded=0;whiteSpace=wrap;html=1;align=left;" vertex="1" parent="1">
          <mxGeometry x="390" y="97" width="170" height="63" as="geometry" />
        </mxCell>
        <mxCell id="N8gLPtohP1uES2nzlR-K-39" value="泛化因子：余额宝投资倾向" style="rounded=0;whiteSpace=wrap;html=1;align=left;" vertex="1" parent="1">
          <mxGeometry x="390" y="222" width="170" height="30" as="geometry" />
        </mxCell>
        <mxCell id="N8gLPtohP1uES2nzlR-K-40" value="可选项：&lt;br&gt;倾向获取高收益&lt;br&gt;倾向灵活存取" style="rounded=0;whiteSpace=wrap;html=1;align=left;" vertex="1" parent="1">
          <mxGeometry x="390" y="262" width="170" height="63" as="geometry" />
        </mxCell>
        <mxCell id="N8gLPtohP1uES2nzlR-K-44" value="" style="endArrow=classic;html=1;rounded=0;entryX=0;entryY=0.5;entryDx=0;entryDy=0;" edge="1" parent="1" target="N8gLPtohP1uES2nzlR-K-41">
          <mxGeometry width="50" height="50" relative="1" as="geometry">
            <mxPoint x="340" y="200" as="sourcePoint" />
            <mxPoint x="390" y="150" as="targetPoint" />
          </mxGeometry>
        </mxCell>
        <mxCell id="N8gLPtohP1uES2nzlR-K-45" value="" style="endArrow=classic;html=1;rounded=0;entryX=0;entryY=0.5;entryDx=0;entryDy=0;" edge="1" parent="1" target="N8gLPtohP1uES2nzlR-K-42">
          <mxGeometry width="50" height="50" relative="1" as="geometry">
            <mxPoint x="340" y="200" as="sourcePoint" />
            <mxPoint x="620" y="230" as="targetPoint" />
          </mxGeometry>
        </mxCell>
      </root>
    </mxGraphModel>
  </diagram>
</mxfile>
